<mxfile host="app.diagrams.net" modified="2024-03-23T18:30:08.401Z" agent="Mozilla/5.0 (X11; Linux x86_64; rv:109.0) Gecko/20100101 Firefox/115.0" etag="OpL7bfHpBpbMRBhJQkYa" version="24.1.0" type="device">
  <diagram name="Page-1" id="ihtlLs_w9n4jZuCkYDlj">
    <mxGraphModel dx="1424" dy="757" grid="1" gridSize="10" guides="1" tooltips="1" connect="1" arrows="1" fold="1" page="1" pageScale="1" pageWidth="850" pageHeight="1100" math="0" shadow="0">
      <root>
        <mxCell id="0" />
        <mxCell id="1" parent="0" />
        <mxCell id="ioNR7vrhQBxCRjhPpnJJ-1" value="&lt;font style=&quot;font-size: 15px;&quot;&gt;Ansible controller for CA&lt;br&gt;&lt;/font&gt;" style="image;aspect=fixed;perimeter=ellipsePerimeter;html=1;align=center;shadow=0;dashed=0;spacingTop=3;image=img/lib/active_directory/generic_server.svg;" vertex="1" parent="1">
          <mxGeometry x="580" y="620" width="78" height="139.28" as="geometry" />
        </mxCell>
        <mxCell id="ioNR7vrhQBxCRjhPpnJJ-2" value="&lt;div&gt;&lt;font style=&quot;font-size: 15px;&quot;&gt;Ansible controller for clients&lt;/font&gt;&lt;/div&gt;" style="image;aspect=fixed;perimeter=ellipsePerimeter;html=1;align=center;shadow=0;dashed=0;spacingTop=3;image=img/lib/active_directory/generic_server.svg;" vertex="1" parent="1">
          <mxGeometry x="110" y="620" width="78" height="139.28" as="geometry" />
        </mxCell>
        <mxCell id="ioNR7vrhQBxCRjhPpnJJ-3" value="&lt;font style=&quot;font-size: 14px;&quot;&gt;Clients&lt;/font&gt;" style="image;aspect=fixed;perimeter=ellipsePerimeter;html=1;align=center;shadow=0;dashed=0;spacingTop=3;image=img/lib/active_directory/server_farm.svg;" vertex="1" parent="1">
          <mxGeometry x="70" y="310" width="120" height="120" as="geometry" />
        </mxCell>
        <mxCell id="ioNR7vrhQBxCRjhPpnJJ-4" value="&lt;font style=&quot;font-size: 14px;&quot;&gt;4. Transfer certificate(s)&lt;/font&gt;" style="image;sketch=0;aspect=fixed;html=1;points=[];align=center;fontSize=12;image=img/lib/mscae/Certificate.svg;" vertex="1" parent="1">
          <mxGeometry x="340" y="740" width="60" height="50.4" as="geometry" />
        </mxCell>
        <mxCell id="ioNR7vrhQBxCRjhPpnJJ-5" value="" style="image;aspect=fixed;html=1;points=[];align=center;fontSize=12;image=img/lib/azure2/general/File.svg;" vertex="1" parent="1">
          <mxGeometry x="344" y="600" width="56.00000000000001" height="69" as="geometry" />
        </mxCell>
        <mxCell id="ioNR7vrhQBxCRjhPpnJJ-6" value="" style="endArrow=classic;html=1;rounded=0;" edge="1" parent="1" target="ioNR7vrhQBxCRjhPpnJJ-1">
          <mxGeometry width="50" height="50" relative="1" as="geometry">
            <mxPoint x="400" y="630" as="sourcePoint" />
            <mxPoint x="450" y="580" as="targetPoint" />
          </mxGeometry>
        </mxCell>
        <mxCell id="ioNR7vrhQBxCRjhPpnJJ-7" value="" style="endArrow=classic;html=1;rounded=0;exitX=0.017;exitY=0.139;exitDx=0;exitDy=0;exitPerimeter=0;" edge="1" parent="1" source="ioNR7vrhQBxCRjhPpnJJ-4" target="ioNR7vrhQBxCRjhPpnJJ-2">
          <mxGeometry width="50" height="50" relative="1" as="geometry">
            <mxPoint x="330" y="750" as="sourcePoint" />
            <mxPoint x="380" y="700" as="targetPoint" />
          </mxGeometry>
        </mxCell>
        <mxCell id="ioNR7vrhQBxCRjhPpnJJ-8" value="" style="endArrow=none;html=1;rounded=0;entryX=-0.054;entryY=0.348;entryDx=0;entryDy=0;entryPerimeter=0;" edge="1" parent="1" target="ioNR7vrhQBxCRjhPpnJJ-5">
          <mxGeometry width="50" height="50" relative="1" as="geometry">
            <mxPoint x="180" y="670" as="sourcePoint" />
            <mxPoint x="230" y="620" as="targetPoint" />
          </mxGeometry>
        </mxCell>
        <mxCell id="ioNR7vrhQBxCRjhPpnJJ-9" value="" style="endArrow=none;html=1;rounded=0;entryX=-0.013;entryY=0.668;entryDx=0;entryDy=0;entryPerimeter=0;exitX=0.983;exitY=0.397;exitDx=0;exitDy=0;exitPerimeter=0;" edge="1" parent="1" source="ioNR7vrhQBxCRjhPpnJJ-4" target="ioNR7vrhQBxCRjhPpnJJ-1">
          <mxGeometry width="50" height="50" relative="1" as="geometry">
            <mxPoint x="190" y="680" as="sourcePoint" />
            <mxPoint x="351" y="634" as="targetPoint" />
          </mxGeometry>
        </mxCell>
        <mxCell id="ioNR7vrhQBxCRjhPpnJJ-11" value="&lt;font style=&quot;font-size: 14px;&quot;&gt;CA server&lt;/font&gt;" style="image;aspect=fixed;perimeter=ellipsePerimeter;html=1;align=center;shadow=0;dashed=0;spacingTop=3;image=img/lib/active_directory/generic_server.svg;" vertex="1" parent="1">
          <mxGeometry x="590" y="290.72" width="78" height="139.28" as="geometry" />
        </mxCell>
        <mxCell id="ioNR7vrhQBxCRjhPpnJJ-13" value="" style="endArrow=classic;html=1;rounded=0;exitX=1.038;exitY=0.101;exitDx=0;exitDy=0;exitPerimeter=0;" edge="1" parent="1">
          <mxGeometry width="50" height="50" relative="1" as="geometry">
            <mxPoint x="629.5" y="634" as="sourcePoint" />
            <mxPoint x="628.5" y="460" as="targetPoint" />
          </mxGeometry>
        </mxCell>
        <mxCell id="ioNR7vrhQBxCRjhPpnJJ-14" value="&lt;div&gt;&lt;br&gt;&lt;/div&gt;&lt;div&gt;&lt;br&gt;&lt;/div&gt;&lt;div&gt;&lt;font style=&quot;font-size: 14px;&quot;&gt;4. Sign&lt;/font&gt;&lt;/div&gt;&lt;div&gt;&lt;font style=&quot;font-size: 14px;&quot;&gt;certificates&lt;br&gt;&lt;/font&gt;&lt;/div&gt;" style="edgeLabel;html=1;align=center;verticalAlign=middle;resizable=0;points=[];" vertex="1" connectable="0" parent="ioNR7vrhQBxCRjhPpnJJ-13">
          <mxGeometry x="-0.0375" y="2" relative="1" as="geometry">
            <mxPoint as="offset" />
          </mxGeometry>
        </mxCell>
        <mxCell id="ioNR7vrhQBxCRjhPpnJJ-15" value="&lt;font style=&quot;font-size: 14px;&quot;&gt;1. Initialize CA&lt;br&gt;&lt;/font&gt;" style="edgeLabel;html=1;align=center;verticalAlign=middle;resizable=0;points=[];" vertex="1" connectable="0" parent="ioNR7vrhQBxCRjhPpnJJ-13">
          <mxGeometry x="0.5405" y="4" relative="1" as="geometry">
            <mxPoint as="offset" />
          </mxGeometry>
        </mxCell>
        <mxCell id="ioNR7vrhQBxCRjhPpnJJ-16" value="" style="endArrow=classic;html=1;rounded=0;" edge="1" parent="1">
          <mxGeometry width="50" height="50" relative="1" as="geometry">
            <mxPoint x="130" y="630" as="sourcePoint" />
            <mxPoint x="130" y="460" as="targetPoint" />
          </mxGeometry>
        </mxCell>
        <mxCell id="ioNR7vrhQBxCRjhPpnJJ-17" value="&lt;font style=&quot;font-size: 14px;&quot;&gt;2. Generate and fetch CSRs&lt;br&gt;&lt;/font&gt;" style="edgeLabel;html=1;align=center;verticalAlign=middle;resizable=0;points=[];" vertex="1" connectable="0" parent="ioNR7vrhQBxCRjhPpnJJ-16">
          <mxGeometry x="0.5647" y="1" relative="1" as="geometry">
            <mxPoint as="offset" />
          </mxGeometry>
        </mxCell>
        <mxCell id="ioNR7vrhQBxCRjhPpnJJ-18" value="&lt;font style=&quot;font-size: 14px;&quot;&gt;3. Transfer &lt;font style=&quot;font-size: 14px;&quot;&gt;Certificate Signing Request(s)&lt;br&gt;&lt;/font&gt;&lt;/font&gt;" style="text;html=1;align=center;verticalAlign=middle;resizable=0;points=[];autosize=1;strokeColor=none;fillColor=none;" vertex="1" parent="1">
          <mxGeometry x="232" y="560" width="280" height="30" as="geometry" />
        </mxCell>
      </root>
    </mxGraphModel>
  </diagram>
</mxfile>
